<svg width="42" height="43" viewBox="0 0 42 43" fill="none" xmlns="http://www.w3.org/2000/svg">
<path d="M12.2503 0.666626H29.7503C36.417 0.666626 41.8337 6.08329 41.8337 12.75V30.25C41.8337 33.4547 40.5606 36.5281 38.2945 38.7942C36.0285 41.0602 32.955 42.3333 29.7503 42.3333H12.2503C5.58366 42.3333 0.166992 36.9166 0.166992 30.25V12.75C0.166992 9.54526 1.44005 6.47182 3.70612 4.20575C5.97218 1.93969 9.04563 0.666626 12.2503 0.666626ZM11.8337 4.83329C9.84454 4.83329 7.93688 5.62347 6.53036 7.02999C5.12384 8.43652 4.33366 10.3442 4.33366 12.3333V30.6666C4.33366 34.8125 7.68783 38.1666 11.8337 38.1666H30.167C32.1561 38.1666 34.0638 37.3765 35.4703 35.9699C36.8768 34.5634 37.667 32.6558 37.667 30.6666V12.3333C37.667 8.18746 34.3128 4.83329 30.167 4.83329H11.8337ZM31.9378 7.95829C32.6285 7.95829 33.2909 8.23266 33.7793 8.72104C34.2676 9.20941 34.542 9.87179 34.542 10.5625C34.542 11.2531 34.2676 11.9155 33.7793 12.4039C33.2909 12.8923 32.6285 13.1666 31.9378 13.1666C31.2472 13.1666 30.5848 12.8923 30.0964 12.4039C29.608 11.9155 29.3337 11.2531 29.3337 10.5625C29.3337 9.87179 29.608 9.20941 30.0964 8.72104C30.5848 8.23266 31.2472 7.95829 31.9378 7.95829ZM21.0003 11.0833C23.763 11.0833 26.4125 12.1808 28.366 14.1343C30.3195 16.0878 31.417 18.7373 31.417 21.5C31.417 24.2626 30.3195 26.9122 28.366 28.8657C26.4125 30.8192 23.763 31.9166 21.0003 31.9166C18.2377 31.9166 15.5881 30.8192 13.6346 28.8657C11.6811 26.9122 10.5837 24.2626 10.5837 21.5C10.5837 18.7373 11.6811 16.0878 13.6346 14.1343C15.5881 12.1808 18.2377 11.0833 21.0003 11.0833ZM21.0003 15.25C19.3427 15.25 17.753 15.9084 16.5809 17.0805C15.4088 18.2526 14.7503 19.8424 14.7503 21.5C14.7503 23.1576 15.4088 24.7473 16.5809 25.9194C17.753 27.0915 19.3427 27.75 21.0003 27.75C22.6579 27.75 24.2476 27.0915 25.4197 25.9194C26.5918 24.7473 27.2503 23.1576 27.2503 21.5C27.2503 19.8424 26.5918 18.2526 25.4197 17.0805C24.2476 15.9084 22.6579 15.25 21.0003 15.25Z" fill="url(#paint0_linear_54_254)"/>
<path d="M12.2503 0.666626H29.7503C36.417 0.666626 41.8337 6.08329 41.8337 12.75V30.25C41.8337 33.4547 40.5606 36.5281 38.2945 38.7942C36.0285 41.0602 32.955 42.3333 29.7503 42.3333H12.2503C5.58366 42.3333 0.166992 36.9166 0.166992 30.25V12.75C0.166992 9.54526 1.44005 6.47182 3.70612 4.20575C5.97218 1.93969 9.04563 0.666626 12.2503 0.666626ZM11.8337 4.83329C9.84454 4.83329 7.93688 5.62347 6.53036 7.02999C5.12384 8.43652 4.33366 10.3442 4.33366 12.3333V30.6666C4.33366 34.8125 7.68783 38.1666 11.8337 38.1666H30.167C32.1561 38.1666 34.0638 37.3765 35.4703 35.9699C36.8768 34.5634 37.667 32.6558 37.667 30.6666V12.3333C37.667 8.18746 34.3128 4.83329 30.167 4.83329H11.8337ZM31.9378 7.95829C32.6285 7.95829 33.2909 8.23266 33.7793 8.72104C34.2676 9.20941 34.542 9.87179 34.542 10.5625C34.542 11.2531 34.2676 11.9155 33.7793 12.4039C33.2909 12.8923 32.6285 13.1666 31.9378 13.1666C31.2472 13.1666 30.5848 12.8923 30.0964 12.4039C29.608 11.9155 29.3337 11.2531 29.3337 10.5625C29.3337 9.87179 29.608 9.20941 30.0964 8.72104C30.5848 8.23266 31.2472 7.95829 31.9378 7.95829ZM21.0003 11.0833C23.763 11.0833 26.4125 12.1808 28.366 14.1343C30.3195 16.0878 31.417 18.7373 31.417 21.5C31.417 24.2626 30.3195 26.9122 28.366 28.8657C26.4125 30.8192 23.763 31.9166 21.0003 31.9166C18.2377 31.9166 15.5881 30.8192 13.6346 28.8657C11.6811 26.9122 10.5837 24.2626 10.5837 21.5C10.5837 18.7373 11.6811 16.0878 13.6346 14.1343C15.5881 12.1808 18.2377 11.0833 21.0003 11.0833ZM21.0003 15.25C19.3427 15.25 17.753 15.9084 16.5809 17.0805C15.4088 18.2526 14.7503 19.8424 14.7503 21.5C14.7503 23.1576 15.4088 24.7473 16.5809 25.9194C17.753 27.0915 19.3427 27.75 21.0003 27.75C22.6579 27.75 24.2476 27.0915 25.4197 25.9194C26.5918 24.7473 27.2503 23.1576 27.2503 21.5C27.2503 19.8424 26.5918 18.2526 25.4197 17.0805C24.2476 15.9084 22.6579 15.25 21.0003 15.25Z" fill="url(#paint1_radial_54_254)" fill-opacity="0.86"/>
<defs>
<linearGradient id="paint0_linear_54_254" x1="2.00049" y1="42.4999" x2="44.0005" y2="4.49988" gradientUnits="userSpaceOnUse">
<stop stop-color="#FFCC00"/>
<stop offset="1" stop-color="#AE00FF"/>
</linearGradient>
<radialGradient id="paint1_radial_54_254" cx="0" cy="0" r="1" gradientUnits="userSpaceOnUse" gradientTransform="translate(-3.49951 -6.00012) rotate(45.7073) scale(28.64)">
<stop stop-color="#0059FF"/>
<stop offset="1" stop-color="#0059FF" stop-opacity="0"/>
</radialGradient>
</defs>
</svg>
