<svg width="51" height="51" viewBox="0 0 51 51" fill="none" xmlns="http://www.w3.org/2000/svg">
<path d="M25.4997 0.083374C11.4697 0.083374 0.0830078 11.47 0.0830078 25.5C0.0830078 39.53 11.4697 50.9167 25.4997 50.9167C39.5297 50.9167 50.9163 39.53 50.9163 25.5C50.9163 11.47 39.5297 0.083374 25.4997 0.083374ZM37.293 17.3667C36.9118 21.3825 35.2597 31.1425 34.4209 35.6413C34.0651 37.5475 33.3534 38.183 32.6926 38.2592C31.2184 38.3863 30.1001 37.2934 28.6768 36.353C26.4401 34.8788 25.1693 33.9638 23.0088 32.5405C20.4926 30.8884 22.1193 29.9734 23.568 28.4992C23.9493 28.118 30.4559 22.1959 30.583 21.6621C30.6007 21.5813 30.5983 21.4974 30.5762 21.4176C30.554 21.3379 30.5127 21.2648 30.4559 21.2046C30.3034 21.0775 30.1001 21.1284 29.9222 21.1538C29.6934 21.2046 26.1351 23.5684 19.1963 28.245C18.1797 28.9313 17.2647 29.2871 16.4513 29.2617C15.5363 29.2363 13.808 28.7534 12.5118 28.3213C10.9105 27.813 9.66509 27.5334 9.76676 26.6438C9.81759 26.1863 10.453 25.7288 11.6476 25.2459C19.0693 22.018 24.0001 19.883 26.4655 18.8663C33.5313 15.918 34.9801 15.4096 35.9459 15.4096C36.1493 15.4096 36.6322 15.4605 36.9372 15.7146C37.1913 15.918 37.2676 16.1975 37.293 16.4009C37.2676 16.5534 37.3184 17.0109 37.293 17.3667Z" fill="#0EB7FF"/>
</svg>
