<svg width="44" height="45" viewBox="0 0 44 45" fill="none" xmlns="http://www.w3.org/2000/svg">
<path d="M3.295 3.795C0.25 6.869 0.25 11.7845 0.25 21.63V23.37C0.25 33.201 0.25 38.1165 3.295 41.205C6.369 44.25 11.2845 44.25 21.13 44.25H22.87C32.701 44.25 37.6165 44.25 40.705 41.205C43.75 38.131 43.75 33.2155 43.75 23.37V21.63C43.75 11.799 43.75 6.8835 40.705 3.795C37.631 0.75 32.7155 0.75 22.87 0.75H21.13C11.299 0.75 6.3835 0.75 3.295 3.795ZM7.587 13.9885H12.575C12.7345 22.2825 16.3885 25.7915 19.2885 26.5165V13.9885H23.972V21.137C26.8285 20.8325 29.8445 17.57 30.8595 13.974H35.5285C35.1475 15.8354 34.3869 17.5982 33.2942 19.1525C32.2015 20.7067 30.8001 22.0191 29.1775 23.0075C30.9886 23.9086 32.5881 25.1835 33.8703 26.7482C35.1525 28.3128 36.0883 30.1316 36.616 32.0845H31.4685C30.3665 28.648 27.6115 25.98 23.972 25.6175V32.0845H23.392C13.474 32.0845 7.819 25.2985 7.587 13.9885Z" fill="#0095FF"/>
</svg>
