<svg width="259" height="88" viewBox="0 0 259 88" fill="none" xmlns="http://www.w3.org/2000/svg">
<g clip-path="url(#clip0_104_408)">
<path d="M17.5052 52.0033C17.3661 51.5404 17.1576 48.7235 16.6363 48.6751C16.115 48.5973 15.0723 48.241 14.3772 48.6751C13.6822 49.1095 11.7707 51.2798 10.728 52.5823C9.68539 53.8845 4.64603 57.7913 3.08207 58.6594C1.51813 59.5275 1.34435 68.7884 0.475493 70.38C-0.393366 71.9717 0.127933 72.4886 0.475479 74.9484C0.753509 76.9162 2.21321 83.5477 3.08207 83.9818C8.12146 86.297 11.8434 84.0659 12.1182 83.8372C12.4657 83.5477 14.2663 82.7574 14.7876 82.1788C15.3089 81.5998 15.0723 79.0618 15.7674 78.0492C16.4625 77.0361 16.6363 71.8271 16.6363 69.946C16.6363 68.0648 16.9838 65.8946 17.6789 63.4344C18.374 60.9746 17.8527 57.2123 17.6789 56.6337C17.5052 56.0547 17.6789 52.5819 17.5052 52.0033Z" fill="#92877A"/>
<path d="M1.03378 56.3901C0.344599 56.0352 0.287167 53.5775 0.344599 52.3932C0.3589 51.9493 0.344589 47.0638 0.172294 46.1758C0 45.2877 0 40.2542 0 36.8493C0 33.4444 0.689177 30.0395 0.689177 29.4474C0.689177 28.8552 1.89524 25.8944 1.89524 25.1543C1.89524 24.4141 1.55065 23.0817 1.20606 22.0455C0.861472 21.0092 1.89524 18.0484 1.89524 17.7524C1.89524 17.4563 2.76341 16.937 3.27359 17.0122C4.8699 17.2473 6.72509 18.9277 7.92554 19.3808C8.92376 19.7576 9.4762 20.5651 11.5437 20.7131C13.6112 20.8611 15.8511 21.7494 16.8849 21.8974C17.9186 22.0455 17.7463 22.9337 17.574 23.3778C17.4017 23.8219 16.7126 29.5954 17.2294 30.4837C17.7463 31.3719 18.2632 37.5895 17.9186 39.3659C17.574 41.1424 14.9896 46.1758 13.6112 47.656C12.2329 49.1363 10.8546 49.7285 9.82079 51.653C8.78702 53.5775 6.03029 55.3541 4.47966 56.3901C2.92901 57.4266 1.89525 56.8344 1.03378 56.3901Z" fill="#C7B59F"/>
<path d="M1.03648 8.43644C-0.34601 9.58252 0.345234 11.5669 0.863665 12.4159C1.90055 13.5301 4.31993 16.0133 5.70243 17.032C7.43053 18.3055 10.7139 18.9422 13.3061 19.2605C15.8983 19.5789 16.0711 19.8973 18.6632 20.3748C21.2554 20.8523 23.6748 21.0115 26.2669 20.8523C28.8591 20.6931 33.525 21.1707 35.5987 21.3298C37.6725 21.489 45.1033 23.8767 48.3866 23.8767C51.6701 23.8767 54.2624 24.9909 55.9904 25.3093C57.7185 25.6276 59.1012 23.8767 59.6192 23.24C60.1377 22.6033 60.4835 19.7381 60.6561 18.1463C60.8293 16.5545 59.4466 11.4608 59.965 8.75481C60.4835 6.04875 59.6192 1.59178 57.8912 0.79589C56.1631 0 47.3497 0.318356 46.313 0.318356C45.2761 0.318356 42.8568 1.4326 40.9559 1.11425C39.0549 0.79589 34.9075 0 33.0066 0C31.1056 0 19.1817 0.79589 17.1079 1.11425C15.0342 1.4326 12.0964 3.18356 10.7139 3.82027C9.33145 4.45697 7.94895 4.9345 5.70243 5.88958C3.45587 6.84466 2.76459 7.00382 1.03648 8.43644Z" fill="#B39877"/>
<path d="M43.231 34.8199C43.3709 34.0219 44.1054 31.6847 43.231 30.2034C42.8812 29.5686 42.9511 27.3292 43.231 26.7488C43.5808 26.0233 42.3565 25.4792 46.3789 25.1164C50.4015 24.7537 56.8723 27.3836 57.3968 27.4743C57.9218 27.565 60.0137 28.5347 60.5382 28.8067C60.9295 29.0095 62.4686 32.2807 61.7692 33.1876C61.0697 34.0945 59.4957 38.7195 59.4957 39.0822C59.4957 39.445 58.6426 45.604 56.1942 46.9639C53.7457 48.3243 52.7255 47.4299 50.9877 48.8264C47.0447 51.9957 43.863 50.5337 43.5155 47.2747C43.4461 46.6238 43.2309 40.8874 43.2309 39.9805C43.2309 39.0736 43.0561 35.8175 43.231 34.8199Z" fill="#92877A"/>
<path d="M41.5661 67.8097C42.5233 66.1849 43.7882 61.9869 44.301 60.0908C44.4719 58.872 44.8138 56.1504 44.8138 55.0128C44.8138 53.5907 46.694 51.5595 47.8906 51.5595C49.0872 51.5595 49.9835 50.7752 51.7496 49.3591C53.3965 48.0387 54.3294 48.9186 56.0951 48.9186C58.4572 48.9186 61.3939 55.8252 60.3681 57.8564C59.3428 59.888 60.3681 74.9195 60.3681 76.7475C60.3681 78.5759 61.2231 82.232 57.2917 84.0604C53.3603 85.8884 47.8906 83.4508 46.694 83.0448C45.4975 82.6384 44.301 77.7631 42.5917 74.9195C40.8824 72.0758 40.3696 69.8414 41.5661 67.8097Z" fill="#B39877"/>
<path d="M61.5205 50.9018C61.5205 52.048 63.2485 55.3057 64.6308 56.3141C64.9766 56.5712 69.297 61.7258 72.062 63.9543C74.827 66.1828 77.2461 65.387 79.6653 63.6359C82.085 61.8853 83.3057 55.4353 84.3645 52.573C84.8254 51.327 83.3494 49.3493 82.6986 47.8967C81.528 45.2851 79.7517 42.5899 78.9742 41.6695C77.7646 40.2369 74.6046 33.3177 74.432 32.5217C74.2593 31.7258 70.6792 28.9353 70.6792 28.9353C68.7785 27.5027 62.9213 28.0609 63.0759 29.971V39.2818C63.0759 40.5552 60.5142 43.3088 59.7924 45.9675C59.1347 48.3872 61.5205 50.2191 61.5205 50.9018Z" fill="#B39877"/>
<path d="M67.8766 23.0807C67.3233 21.5525 68.8559 14.5381 69.95 13.0524C71.3327 9.55051 72.0238 9.07293 72.0238 6.36691C72.0238 4.55449 73.4971 3.13203 75.1448 2.12535C75.9571 1.629 77.6035 1.12375 77.9107 0.991691C79.804 0.178124 80.2157 0.141498 80.8303 0.493615C81.7683 0.922919 82.8071 2.93441 82.3671 3.82588C81.9447 4.68207 81.9062 8.21877 81.4453 11.7615C81.9062 16.0127 82.7078 19.3066 84.1207 20.8521C86.3329 23.2717 86.6555 27.4846 86.5399 29.2886C82.7384 40.1127 81.0099 37.2475 79.2818 36.7699C77.5538 36.2924 75.1346 30.562 74.0977 29.2886C73.0607 28.0152 68.5677 24.9908 67.8766 23.0807Z" fill="#92877A"/>
<path d="M83.7307 3.2736C84.283 0.983828 88.22 0.729406 90.1193 0.888418C94.1482 0.888418 102.828 1.04743 105.314 1.6835C108.422 2.47859 105.832 11.8603 104.796 13.4504C103.76 15.0405 97.7167 19.0158 95.1267 20.7649C92.5367 22.5141 88.738 23.4682 87.3567 22.6731C85.9753 21.878 83.7307 16.4716 83.04 13.9274C82.3493 11.3832 83.04 6.13581 83.7307 3.2736Z" fill="#C7B59F"/>
<path d="M81.3664 64.1928C78.8767 67.3638 78.8237 67.1691 80.9041 69.0817C81.7684 69.8159 83.9996 72.2114 85.037 73.0919C85.6613 73.622 87.6664 76.696 91.0747 79.4972C92.3878 80.5765 94.9778 81.9561 96.2761 82.4866C102.484 85.0242 100.772 85.4225 105.959 84.1016C109.336 83.2412 109.072 83.7488 109.072 81.6062C109.072 78.9445 106.997 75.5873 106.305 71.771C105.613 67.9543 106.53 70.5705 98.0097 61.43C89.6878 52.5024 93.6178 55.9034 90.6124 53.5652C89.4725 52.6776 86.914 51.0855 86.4517 52.5024C86.1496 53.4288 85.891 54.8087 85.296 55.903C84.5255 57.3203 84.4786 60.2298 81.3664 64.1928Z" fill="#C7B59F"/>
<path d="M126.757 41V23.5H142.707V41H138.682V25.875L139.607 26.8H129.857L130.782 25.875V41H126.757ZM145.07 41L152.87 23.5H156.87L164.695 41H160.445L154.045 25.55H155.645L149.22 41H145.07ZM148.97 37.25L150.045 34.175H159.045L160.145 37.25H148.97ZM167.288 41.275C166.988 41.275 166.672 41.25 166.338 41.2C166.022 41.15 165.672 41.0833 165.288 41L165.538 37.575C165.772 37.6417 166.013 37.675 166.263 37.675C166.947 37.675 167.48 37.4 167.863 36.85C168.247 36.2833 168.522 35.475 168.688 34.425C168.855 33.375 168.963 32.1 169.013 30.6L169.263 23.5H182.713V41H178.713V25.875L179.638 26.8H171.913L172.738 25.825L172.588 30.45C172.538 32.1667 172.422 33.6917 172.238 35.025C172.055 36.3583 171.772 37.4917 171.388 38.425C171.005 39.3583 170.48 40.0667 169.813 40.55C169.147 41.0333 168.305 41.275 167.288 41.275ZM187.084 41V23.5H191.109V34.9L199.459 23.5H203.259V41H199.259V29.625L190.909 41H187.084ZM211.391 41V25.875L212.316 26.8H205.816V23.5H220.991V26.8H214.491L215.391 25.875V41H211.391ZM223.534 41V23.5H231.109C232.676 23.5 234.026 23.7583 235.159 24.275C236.293 24.775 237.168 25.5 237.784 26.45C238.401 27.4 238.709 28.5333 238.709 29.85C238.709 31.15 238.401 32.275 237.784 33.225C237.168 34.175 236.293 34.9083 235.159 35.425C234.026 35.925 232.676 36.175 231.109 36.175H225.784L227.584 34.35V41H223.534ZM227.584 34.8L225.784 32.875H230.884C232.134 32.875 233.068 32.6083 233.684 32.075C234.301 31.5417 234.609 30.8 234.609 29.85C234.609 28.8833 234.301 28.1333 233.684 27.6C233.068 27.0667 232.134 26.8 230.884 26.8H225.784L227.584 24.875V34.8ZM238.527 41L246.327 23.5H250.327L258.152 41H253.902L247.502 25.55H249.102L242.677 41H238.527ZM242.427 37.25L243.502 34.175H252.502L253.602 37.25H242.427ZM138.082 71L132.632 62.575L135.907 60.6L142.682 71H138.082ZM126.707 71V53.5H130.732V71H126.707ZM129.557 63.95V60.575H135.657V63.95H129.557ZM136.282 62.7L132.557 62.25L138.232 53.5H142.507L136.282 62.7ZM142.238 71L150.038 53.5H154.038L161.863 71H157.613L151.213 55.55H152.813L146.388 71H142.238ZM146.138 67.25L147.213 64.175H156.213L157.313 67.25H146.138ZM164.184 71V53.5H167.534L174.984 65.85H173.209L180.534 53.5H183.884L183.909 71H180.109L180.084 59.325H180.809L174.934 69.15H173.134L167.134 59.325H167.984V71H164.184ZM200.256 53.5H204.306V71H200.256V53.5ZM192.306 71H188.256V53.5H192.306V71ZM200.556 63.825H192.006V60.4H200.556V63.825ZM218.666 71V65.475L219.666 66.35H214.866C213.349 66.35 212.041 66.1 210.941 65.6C209.841 65.1 208.999 64.375 208.416 63.425C207.832 62.475 207.541 61.3417 207.541 60.025C207.541 58.6583 207.849 57.4917 208.466 56.525C209.099 55.5417 209.982 54.7917 211.116 54.275C212.249 53.7583 213.582 53.5 215.116 53.5H222.666V71H218.666ZM207.591 71L211.941 64.725H216.041L211.866 71H207.591ZM218.666 64.175V55.75L219.666 56.8H215.216C214.066 56.8 213.182 57.0667 212.566 57.6C211.966 58.1333 211.666 58.925 211.666 59.975C211.666 60.9917 211.957 61.775 212.541 62.325C213.124 62.875 213.982 63.15 215.116 63.15H219.666L218.666 64.175Z" fill={ props.color}/>
</g>
<defs>
<clipPath id="clip0_104_408">
<rect width="259" height="88" fill="white"/>
</clipPath>
</defs>
</svg>
