<svg width="100" height="85" viewBox="0 0 100 85" fill="none" xmlns="http://www.w3.org/2000/svg">
<path d="M16.0484 51.9885C15.9209 51.5256 15.7298 48.7096 15.2518 48.6614C14.7739 48.5834 13.818 48.2274 13.1808 48.6614C12.5436 49.0954 10.7911 51.2653 9.83527 52.5672C8.87941 53.8691 4.25938 57.7749 2.82559 58.6428C1.39179 59.5108 1.23248 68.7689 0.435924 70.3601C-0.360631 71.9513 0.117286 72.468 0.435908 74.9272C0.690805 76.8945 2.02903 83.524 2.82559 83.958C7.4456 86.2725 10.8578 84.042 11.1097 83.8133C11.4284 83.524 13.079 82.7339 13.557 82.1553C14.0349 81.5767 13.818 79.0396 14.4553 78.027C15.0925 77.0144 15.2518 71.8067 15.2518 69.9261C15.2518 68.0456 15.5705 65.8757 16.2077 63.4165C16.8449 60.9573 16.367 57.1962 16.2077 56.6176C16.0484 56.039 16.2077 52.5672 16.0484 51.9885Z" fill="#877A6E"/>
<path d="M0.947747 56.3742C0.315922 56.0191 0.26327 53.5623 0.315922 52.3783C0.329033 51.9344 0.315913 47.0505 0.157956 46.1625C1.66915e-08 45.2745 4.90492e-09 40.2427 4.90492e-09 36.8387C4.90492e-09 33.4348 0.631825 30.0309 0.631825 29.4389C0.631825 28.8469 1.73752 25.887 1.73752 25.147C1.73752 24.4071 1.42161 23.0751 1.10569 22.0391C0.789782 21.0032 1.73752 18.0432 1.73752 17.7472C1.73752 17.4512 2.53345 16.9321 3.00117 17.0073C4.46464 17.2423 6.16545 18.9222 7.26599 19.3752C8.18115 19.7519 8.6876 20.5592 10.5831 20.7072C12.4785 20.8552 14.532 21.7431 15.4797 21.8911C16.4275 22.0391 16.2695 22.9271 16.1115 23.3711C15.9536 23.8151 15.3218 29.5869 15.7956 30.4749C16.2695 31.3629 16.7434 37.5787 16.4275 39.3547C16.1115 41.1306 13.7422 46.1625 12.4785 47.6425C11.2149 49.1224 9.95125 49.7144 9.00351 51.6384C8.05577 53.5623 5.52847 55.3383 4.10686 56.3742C2.68526 57.4102 1.73753 56.8182 0.947747 56.3742Z" fill="#C7B59F"/>
<path d="M0.950638 8.43403C-0.316801 9.57979 0.316918 11.5636 0.792208 12.4124C1.7428 13.5263 3.96084 16.0088 5.22828 17.0272C6.81258 18.3003 9.82275 18.9368 12.1992 19.2551C14.5757 19.5733 14.7341 19.8916 17.1105 20.369C19.487 20.8464 21.705 21.0055 24.0814 20.8464C26.4579 20.6873 30.7355 21.1647 32.6367 21.3238C34.5378 21.4829 41.3503 23.8699 44.3605 23.8699C47.3707 23.8699 49.7471 24.9838 51.3314 25.3021C52.9157 25.6204 54.1831 23.8699 54.6584 23.2334C55.1337 22.5968 55.4506 19.7325 55.609 18.1411C55.7674 16.5498 54.5 11.4576 54.9753 8.7523C55.4506 6.04704 54.6584 1.59133 53.0741 0.795664C51.4898 0 43.4099 0.318265 42.4593 0.318265C41.5087 0.318265 39.2907 1.43219 37.548 1.11393C35.8053 0.795664 32.0029 0 30.2602 0C28.5175 0 17.5858 0.795664 15.6847 1.11393C13.7835 1.43219 11.0902 3.18265 9.82275 3.81919C8.55531 4.45572 7.28787 4.93311 5.22828 5.88791C3.16869 6.84271 2.53494 7.00184 0.950638 8.43403Z" fill="#B39877"/>
<path d="M39.6342 34.8101C39.7625 34.0123 40.4359 31.6757 39.6342 30.1949C39.3136 29.5603 39.3777 27.3215 39.6342 26.7413C39.9549 26.016 38.8326 25.472 42.5202 25.1094C46.2079 24.7467 52.1403 27.3759 52.6213 27.4666C53.1023 27.5572 55.0204 28.5266 55.5014 28.7986C55.8599 29.0013 57.2709 32.2716 56.6296 33.1782C55.9883 34.0848 54.5453 38.7086 54.5453 39.0712C54.5453 39.4338 53.7633 45.5909 51.5186 46.9508C49.2739 48.3107 48.3385 47.4163 46.7454 48.8126C43.1304 51.9811 40.2137 50.5192 39.8951 47.2611C39.8314 46.6105 39.6342 40.8758 39.6342 39.9692C39.6342 39.0626 39.4739 35.8074 39.6342 34.8101Z" fill="#877A6E"/>
<path d="M38.1077 67.7905C38.9853 66.1659 40.1449 61.9691 40.615 60.0737C40.7717 58.8553 41.0851 56.1341 41.0851 54.9969C41.0851 53.5754 42.8089 51.5447 43.9058 51.5447C45.0027 51.5447 45.8246 50.7605 47.4436 49.345C48.9536 48.0248 49.8088 48.9048 51.4276 48.9048C53.593 48.9048 56.2854 55.8092 55.3452 57.8399C54.4049 59.8707 55.3452 74.898 55.3452 76.7256C55.3452 78.5533 56.1287 82.2086 52.5245 84.0362C48.9203 85.8639 43.9058 83.427 42.8088 83.0209C41.7119 82.6147 40.615 77.741 39.048 74.898C37.4809 72.055 37.0108 69.8212 38.1077 67.7905Z" fill="#B39877"/>
<path d="M56.4011 50.8875C56.4011 52.0332 57.9854 55.2902 59.2528 56.298C59.5697 56.5554 63.5305 61.7085 66.0653 63.9363C68.6002 66.1642 70.8182 65.3685 73.0363 63.6181C75.2543 61.8676 76.3734 55.4199 77.3442 52.5583C77.7668 51.3125 76.4136 49.3354 75.8167 47.8833C74.7437 45.2725 73.1152 42.5781 72.4025 41.6578C71.2935 40.2256 68.3966 33.3083 68.2382 32.5126C68.0797 31.717 64.7979 28.9272 64.7979 28.9272C63.0552 27.495 57.6852 28.053 57.827 29.9626V39.2708C57.827 40.5438 55.4788 43.2967 54.8168 45.9544C54.2141 48.3738 56.4011 50.205 56.4011 50.8875Z" fill="#B39877"/>
<path d="M62.2288 23.074C61.7218 21.5463 63.1265 14.5338 64.1299 13.0486C65.3973 9.54767 66.0311 9.07024 66.0311 6.36498C66.0311 4.55309 67.3814 3.13101 68.8921 2.12462C69.6369 1.62841 71.1462 1.12331 71.4279 0.991285C73.1638 0.177949 73.5412 0.141334 74.1047 0.493351C74.9647 0.922533 75.9168 2.93345 75.5135 3.82466C75.1262 4.6806 75.0909 8.21633 74.6682 11.758C75.0909 16.008 75.8258 19.301 77.1212 20.8461C79.1491 23.2649 79.4448 27.4766 79.3392 29.2801C75.8537 40.1012 74.2694 37.2368 72.6851 36.7594C71.1008 36.282 68.8828 30.5532 67.9322 29.2801C66.9817 28.0071 62.8625 24.9835 62.2288 23.074Z" fill="#877A6E"/>
<path d="M76.7628 3.27273C77.2694 0.983605 80.8785 0.729258 82.6198 0.888225C86.3134 0.888225 94.2704 1.0472 96.5499 1.68308C99.3992 2.47794 97.0248 11.857 96.075 13.4466C95.1252 15.0363 89.5848 19.0105 87.2104 20.7591C84.8359 22.5077 81.3534 23.4615 80.087 22.6667C78.8207 21.8719 76.7628 16.467 76.1296 13.9235C75.4965 11.3801 76.1296 6.13413 76.7628 3.27273Z" fill="#C7B59F"/>
<path d="M74.596 64.1749C72.3133 67.3447 72.2648 67.1501 74.1721 69.0624C74.9646 69.7961 77.0102 72.1909 77.9613 73.0714C78.5335 73.6011 80.372 76.6745 83.4966 79.4749C84.7005 80.5538 87.0748 81.9328 88.2652 82.4634C93.9562 85.0001 92.3868 85.3984 97.1423 84.0777C100.238 83.2178 99.9955 83.7251 99.9955 81.5829C99.9955 78.9223 98.0933 75.5662 97.4592 71.7507C96.8252 67.9352 97.6657 70.5507 89.8543 61.4126C82.225 52.4877 85.8278 55.8876 83.0728 53.5499C82.0273 52.6629 79.682 51.0711 79.2582 52.4877C78.9812 53.4136 78.7441 54.7934 78.1986 55.8874C77.4922 57.304 77.4493 60.2126 74.596 64.1749Z" fill="#C7B59F"/>
</svg>
